<svg width="36" height="44" viewBox="0 0 36 44" fill="none" xmlns="http://www.w3.org/2000/svg">
  <path d="M18 43C18 43 34 27.8 34 17.8C34 8.5 26.8 1 18 1C9.2 1 2 8.5 2 17.8C2 27.8 18 43 18 43Z" fill="#0EA5E9" stroke="#0369A1" stroke-width="2"/>
  <circle cx="18" cy="18" r="7" fill="white" fill-opacity=".95"/>
  <path d="M11 17.5C12.5 16 14 15 15.5 16C17 17 17 19 18 19C19 19 19 17 20.5 16C22 15 23.5 16 25 17.5" stroke="#0EA5E9" stroke-width="2" stroke-linecap="round"/>
  <path d="M11 20.5C12.5 19 14 18 15.5 19C17 20 17 22 18 22C19 22 19 20 20.5 19C22 18 23.5 19 25 20.5" stroke="#0EA5E9" stroke-width="2" stroke-linecap="round"/>
</svg>
